<?xml version="1.0" standalone="no"?><!DOCTYPE svg PUBLIC "-//W3C//DTD SVG 1.1//EN" "http://www.w3.org/Graphics/SVG/1.1/DTD/svg11.dtd"><svg class="icon" width="200px" height="200.00px" viewBox="0 0 1024 1024" version="1.1" xmlns="http://www.w3.org/2000/svg"><path fill="#333333" d="M716.8 373.76c163.84 0 307.2 115.6096 307.2 256.3584 0 75.3664-56.32 145.7152-128 201.0112L921.6 921.6l-97.28-55.296c-35.84 10.0352-71.68 20.1216-107.52 20.1216-174.08 0-307.2-115.6096-307.2-256.3072C409.6 489.3696 547.84 373.76 716.8 373.76zM358.4 102.4c179.2 0 332.8 105.5232 373.76 246.272h-35.84c-174.08 0-307.1488 125.6448-307.1488 281.4464 0 25.088 5.12 50.2272 10.24 75.3664h-35.84c-46.08 0-81.92-10.0352-128-20.1216l-128 60.3136 35.7888-105.472C56.32 579.7888 0 499.3536 0 403.968 0 233.0624 158.72 102.4 358.4 102.4z m261.12 412.1088c-15.36 0-35.84 20.1216-35.84 35.1744 0 20.0704 15.36 35.1744 35.84 35.1744 25.6 0 46.08-20.0704 46.08-35.1744 0-20.1216-20.48-35.1744-46.08-35.1744z m194.56 0c-15.36 0-35.84 20.1216-35.84 35.1744 0 20.0704 20.48 35.1744 35.84 35.1744 30.72 0 46.08-20.0704 46.08-35.1744 0-20.1216-20.48-35.1744-46.08-35.1744zM245.76 248.1152c-30.72 0-56.32 20.1216-56.32 45.2608 0 30.1568 30.72 45.2608 56.32 45.2608 25.6 0 40.96-15.104 46.08-45.2608 0-30.208-20.48-45.2608-46.08-45.2608z m250.88 0c-30.72 0-56.32 20.1216-56.32 45.2608 0 30.1568 30.72 45.2608 56.32 45.2608 25.6 0 46.08-15.104 46.08-45.2608 0-30.208-20.48-45.2608-46.08-45.2608z"  /></svg>